<svg xmlns="http://www.w3.org/2000/svg" width="340" height="450" viewBox="0 0 340 450">
    <rect x="10"  y="10" rx="20" ry="20" width="100" height="100" fill="orange" />
    <rect x="120" y="10" rx="20" ry="20" width="100" height="100" fill="orange" />
    <rect x="230" y="10" rx="20" ry="20" width="100" height="100" fill="orange" />

    <rect x="10"  y="120" rx="20" ry="20" width="100" height="100" fill="orange" />
    <rect x="120" y="120" rx="20" ry="20" width="100" height="100" fill="orange" />
    <rect x="230" y="120" rx="20" ry="20" width="100" height="100" fill="orange" />

    <rect x="10"  y="230" rx="20" ry="20" width="100" height="100" fill="orange" />
    <rect x="120" y="230" rx="20" ry="20" width="100" height="100" fill="orange" />
    <rect x="230" y="230" rx="20" ry="20" width="100" height="100" fill="orange" />

    <rect x="10" y="340" rx="20" ry="20" width="320" height="100" fill="red" />

    <text x="40"  y="80" font-family="Verdana" font-size="60">1</text>
    <text x="150" y="80" font-family="Verdana" font-size="60">2</text>
    <text x="260" y="80" font-family="Verdana" font-size="60">3</text>

    <text x="40"  y="190" font-family="Verdana" font-size="60">4</text>
    <text x="150" y="190" font-family="Verdana" font-size="60">5</text>
    <text x="260" y="190" font-family="Verdana" font-size="60">6</text>

    <text x="40"  y="300" font-family="Verdana" font-size="60">7</text>
    <text x="150" y="300" font-family="Verdana" font-size="60">8</text>
    <text x="260" y="300" font-family="Verdana" font-size="60">9</text>

    <text x="45" y="410" font-size="50">キャンセル</text>
</svg>
