<svg xmlns="http://www.w3.org/2000/svg" width="1040" height="1350" viewBox="0 0 1040 1350">
    <rect x="30"  y="30" rx="60" ry="60" width="300" height="300" fill="orange" />
    <rect x="360" y="30" rx="60" ry="60" width="300" height="300" fill="orange" />
    <rect x="690" y="30" rx="60" ry="60" width="300" height="300" fill="orange" />

    <rect x="30"  y="360" rx="60" ry="60" width="300" height="300" fill="orange" />
    <rect x="360" y="360" rx="60" ry="60" width="300" height="300" fill="orange" />
    <rect x="690" y="360" rx="60" ry="60" width="300" height="300" fill="orange" />

    <rect x="30"  y="690" rx="60" ry="60" width="300" height="300" fill="orange" />
    <rect x="360" y="690" rx="60" ry="60" width="300" height="300" fill="orange" />
    <rect x="690" y="690" rx="60" ry="60" width="300" height="300" fill="orange" />

    <rect x="30" y="1020" rx="60" ry="60" width="960" height="300" fill="red" />

    <text x="120" y="240" font-family="Verdana" font-size="180">1</text>
    <text x="450" y="240" font-family="Verdana" font-size="180">2</text>
    <text x="780" y="240" font-family="Verdana" font-size="180">3</text>

    <text x="120" y="570" font-family="Verdana" font-size="180">4</text>
    <text x="450" y="570" font-family="Verdana" font-size="180">5</text>
    <text x="780" y="570" font-family="Verdana" font-size="180">6</text>

    <text x="120" y="900" font-family="Verdana" font-size="180">7</text>
    <text x="450" y="900" font-family="Verdana" font-size="180">8</text>
    <text x="780" y="900" font-family="Verdana" font-size="180">9</text>

    <text x="60" y="1240" font-size="180">キャンセル</text>
</svg>
