<svg xmlns="http://www.w3.org/2000/svg" width="512" height="512" viewBox="0 0 512 512">
    <defs>
        <mask id="Mask">
            <path d="M35 184.8v190.4c0 6.188 5.012 11.2 11.2 11.2h56v-224H57.4c-12.369 0-22.4 10.031-22.4 22.4zm252-33.6h-16.8v-28c0-3.094-2.506-5.6-5.6-5.6h-11.2a5.598 5.598 0 0 0-5.6 5.6V168c0 3.094 2.506 5.6 5.6 5.6H287c3.094 0 5.6-2.506 5.6-5.6v-11.2c0-3.094-2.506-5.6-5.6-5.6zm96.425-44.772l-112-74.669a22.414 22.414 0 0 0-24.85 0l-112 74.669a22.401 22.401 0 0 0-9.975 18.634V386.4h89.6V285.6c0-6.188 5.012-11.2 11.2-11.2h67.2c6.188 0 11.2 5.012 11.2 11.2v100.8h89.6V125.069c0-7.49-3.745-14.49-9.975-18.641zM259 207.2c-30.926 0-56-25.074-56-56s25.074-56 56-56 56 25.074 56 56-25.074 56-56 56zm201.6-44.8h-44.8v224h56c6.188 0 11.2-5.012 11.2-11.2V184.8c0-12.369-10.031-22.4-22.4-22.4z" fill="white"/>
        </mask>
    </defs>
    <path d="M35 184.8v190.4c0 6.188 5.012 11.2 11.2 11.2h56v-224H57.4c-12.369 0-22.4 10.031-22.4 22.4zm252-33.6h-16.8v-28c0-3.094-2.506-5.6-5.6-5.6h-11.2a5.598 5.598 0 0 0-5.6 5.6V168c0 3.094 2.506 5.6 5.6 5.6H287c3.094 0 5.6-2.506 5.6-5.6v-11.2c0-3.094-2.506-5.6-5.6-5.6zm96.425-44.772l-112-74.669a22.414 22.414 0 0 0-24.85 0l-112 74.669a22.401 22.401 0 0 0-9.975 18.634V386.4h89.6V285.6c0-6.188 5.012-11.2 11.2-11.2h67.2c6.188 0 11.2 5.012 11.2 11.2v100.8h89.6V125.069c0-7.49-3.745-14.49-9.975-18.641zM259 207.2c-30.926 0-56-25.074-56-56s25.074-56 56-56 56 25.074 56 56-25.074 56-56 56zm201.6-44.8h-44.8v224h56c6.188 0 11.2-5.012 11.2-11.2V184.8c0-12.369-10.031-22.4-22.4-22.4z"/>
    <path d="M476.64 259.92v51.706a69.312 69.312 0 0 1 13.44-1.305c28.748 0 49.92 21.043 49.92 55.2 0 27.188-29.122 34.2-47.27 45.424-7.448 4.64-13.99 10.196-19.952 15.51l-.088.079-.089.077c-10.485 9.192-14.201 13.93-14.201 18.109v1.607c2.971 3.449 4.8 8.122 4.8 13.272V498c0 10.604-7.736 19.2-17.28 19.2H307.68c-9.544 0-17.28-8.596-17.28-19.2v-38.4c0-5.15 1.829-9.823 4.8-13.272v-1.607c0-17.213-24-40.282-24-76.32v-12.78c0-37.525 23.195-59.28 54.687-59.963 10.688-7.49 24.471-11.095 37.675-9.591a55.889 55.889 0 0 1 13.238-4.758V259.92c0-27.261 22.55-49.92 49.92-49.92 27.06 0 49.92 22.86 49.92 49.92zm-71.04 0v54.616c-8.801-7.703-25.695-8.65-36.63 2.97-11.788-6.737-27.374-1.013-32.175 7.755-23.477-3.915-36.795 6.045-36.795 30.36V368.4c0 27.295 21.548 46.326 23.806 72h106.051c1.779-15.143 12.734-25.78 23.758-35.445 7.59-6.765 15.18-13.035 23.925-18.48 14.033-8.688 33.66-15.679 33.66-20.955 0-14.025-5.28-26.4-21.12-26.4-21.12 0-31.845 15.84-42.24 15.84v-95.04c0-11.055-9.9-21.12-21.12-21.12-11.385 0-21.12 9.735-21.12 21.12zM328.8 464.4c-7.953 0-14.4 6.447-14.4 14.4s6.447 14.4 14.4 14.4 14.4-6.447 14.4-14.4-6.447-14.4-14.4-14.4z"/>
    <path fill="white" mask="url(#Mask)" d="M476.64 259.92v51.706a69.312 69.312 0 0 1 13.44-1.305c28.748 0 49.92 21.043 49.92 55.2 0 27.188-29.122 34.2-47.27 45.424-7.448 4.64-13.99 10.196-19.952 15.51l-.088.079-.089.077c-10.485 9.192-14.201 13.93-14.201 18.109v1.607c2.971 3.449 4.8 8.122 4.8 13.272V498c0 10.604-7.736 19.2-17.28 19.2H307.68c-9.544 0-17.28-8.596-17.28-19.2v-38.4c0-5.15 1.829-9.823 4.8-13.272v-1.607c0-17.213-24-40.282-24-76.32v-12.78c0-37.525 23.195-59.28 54.687-59.963 10.688-7.49 24.471-11.095 37.675-9.591a55.889 55.889 0 0 1 13.238-4.758V259.92c0-27.261 22.55-49.92 49.92-49.92 27.06 0 49.92 22.86 49.92 49.92zm-71.04 0v54.616c-8.801-7.703-25.695-8.65-36.63 2.97-11.788-6.737-27.374-1.013-32.175 7.755-23.477-3.915-36.795 6.045-36.795 30.36V368.4c0 27.295 21.548 46.326 23.806 72h106.051c1.779-15.143 12.734-25.78 23.758-35.445 7.59-6.765 15.18-13.035 23.925-18.48 14.033-8.688 33.66-15.679 33.66-20.955 0-14.025-5.28-26.4-21.12-26.4-21.12 0-31.845 15.84-42.24 15.84v-95.04c0-11.055-9.9-21.12-21.12-21.12-11.385 0-21.12 9.735-21.12 21.12zM328.8 464.4c-7.953 0-14.4 6.447-14.4 14.4s6.447 14.4 14.4 14.4 14.4-6.447 14.4-14.4-6.447-14.4-14.4-14.4z"/>
</svg>
